<?xml version="1.0" standalone="no"?>
<!DOCTYPE svg PUBLIC "-//W3C//DTD SVG 20010904//EN"
 "http://www.w3.org/TR/2001/REC-SVG-20010904/DTD/svg10.dtd">
<svg version="1.0" xmlns="http://www.w3.org/2000/svg"
 width="1442.000000pt" height="981.000000pt" viewBox="0 0 1442.000000 981.000000"
 preserveAspectRatio="xMidYMid meet">

<g transform="translate(0.000000,981.000000) scale(0.100000,-0.100000)"
fill="#FFFFFF" stroke="none">
<path d="M7767 9804 c-3 -3 -236 -10 -519 -14 -539 -9 -628 -16 -773 -60 -82
-26 -166 -74 -214 -124 l-35 -36 45 0 c24 0 323 11 664 25 455 18 761 25 1148
25 312 0 527 4 527 9 0 17 -77 71 -142 100 -129 58 -279 81 -529 81 -91 0
-168 -3 -172 -6z"/>
<path d="M7250 9569 c-146 -4 -382 -13 -525 -19 -143 -7 -354 -15 -470 -19
-181 -6 -216 -10 -256 -28 -55 -25 -89 -75 -97 -140 l-5 -46 94 7 c118 8 1049
42 1514 56 193 5 576 10 853 10 419 0 502 2 502 14 0 27 -31 101 -53 124 -50
54 -30 52 -684 50 -334 0 -727 -5 -873 -9z"/>
<path d="M7595 9339 c-484 -6 -1502 -41 -1510 -51 -1 -2 -30 -326 -64 -722
-42 -477 -59 -722 -53 -728 10 -10 229 5 239 16 3 2 27 287 55 633 27 345 51
629 51 629 3 2 662 22 663 21 1 -1 9 -245 18 -542 9 -297 19 -577 22 -622 l6
-83 119 0 119 0 0 43 c0 23 -14 310 -29 637 -16 327 -28 596 -27 596 3 3 1391
20 1395 17 2 -1 61 -289 131 -638 70 -349 129 -638 133 -641 3 -3 54 -9 113
-12 l109 -7 57 -213 c31 -118 59 -216 61 -218 2 -2 145 -18 318 -34 888 -85
1690 -176 2234 -255 114 -16 173 -21 180 -14 5 5 11 59 13 118 l4 109 -28 6
c-27 6 -1300 176 -1315 176 -4 0 -5 51 -2 114 7 133 -4 187 -49 244 -28 35
-30 41 -24 97 4 33 11 191 16 350 6 160 11 297 12 305 5 61 7 60 -112 60 -106
0 -110 -1 -114 -22 -3 -13 -9 -187 -14 -389 l-8 -365 -37 -60 c-35 -56 -37
-64 -43 -177 l-7 -118 -26 5 c-14 3 -253 31 -531 61 -278 31 -508 59 -511 63
-3 4 -88 365 -189 802 -100 437 -185 801 -188 808 -5 14 -190 14 -1187 1z"/>
<path d="M10333 8888 c-45 -10 -93 -55 -93 -87 0 -15 13 -19 92 -25 50 -3 143
-6 206 -6 l114 0 -7 28 c-12 52 -53 80 -130 92 -83 11 -125 11 -182 -2z"/>
<path d="M7110 7849 c-107 -4 -355 -17 -550 -28 -195 -11 -416 -23 -490 -26
-159 -7 -251 -24 -334 -63 -77 -37 -130 -79 -178 -143 -67 -90 -69 -159 -4
-194 33 -18 36 -18 197 18 390 85 594 108 1044 114 l370 5 235 -36 c129 -20
238 -36 242 -36 5 0 8 90 8 200 l0 200 -172 -2 c-95 0 -261 -5 -368 -9z"/>
<path d="M7750 7649 l0 -214 123 -63 c162 -83 285 -172 430 -312 188 -181 358
-405 499 -661 l61 -109 233 0 c129 0 234 3 234 8 0 4 -25 206 -56 450 l-56
443 -83 325 c-46 179 -85 327 -87 330 -3 2 -296 7 -651 11 l-647 6 0 -214z"/>
<path d="M6655 7493 c-161 -7 -356 -27 -523 -53 -101 -16 -186 -31 -189 -33
-2 -3 -7 -74 -10 -159 l-6 -155 65 -18 c90 -24 94 -22 90 57 -6 111 43 186
139 217 51 16 222 30 374 30 148 1 185 -11 244 -73 35 -36 81 -49 81 -23 0 8
14 35 31 60 67 102 179 128 309 73 94 -40 323 -163 360 -195 23 -19 39 -46 55
-96 28 -87 42 -97 87 -63 69 52 161 61 241 23 44 -20 122 -122 222 -289 86
-144 93 -171 66 -254 -28 -84 -20 -96 60 -87 47 6 64 3 100 -15 24 -12 57 -34
72 -49 52 -47 57 -68 57 -220 l0 -139 63 -6 c59 -5 743 -36 799 -36 26 0 27 0
21 -57 -3 -32 -6 -59 -7 -60 0 0 -167 5 -371 13 -511 18 -505 18 -505 -6 0
-10 -8 -35 -17 -55 -9 -19 -14 -37 -12 -40 15 -15 141 -26 388 -35 152 -6 312
-15 356 -20 44 -5 111 -9 149 -9 66 -1 68 -2 63 -23 -3 -13 -16 -70 -30 -128
-13 -58 -28 -129 -32 -158 l-7 -52 116 0 115 0 6 38 c13 88 55 243 84 312 17
42 58 117 90 167 212 328 589 538 1006 560 189 10 407 -28 571 -101 93 -41 88
-45 98 86 7 83 6 88 -16 102 -13 8 -42 20 -65 27 l-43 12 0 61 c0 33 5 97 12
143 12 82 13 84 38 79 14 -3 58 -8 97 -11 68 -7 73 -9 68 -29 -2 -11 -18 -136
-36 -276 l-31 -255 22 -14 c60 -40 185 -137 234 -182 l55 -50 5 43 c16 120 56
812 49 819 -36 36 -1257 186 -2063 254 -102 8 -272 24 -379 36 -106 11 -196
18 -198 15 -4 -3 90 -860 102 -928 l5 -28 -273 0 -273 0 -23 48 c-35 72 -127
226 -203 339 -227 341 -520 608 -790 723 -251 107 -719 164 -1163 143z m3478
-499 c21 -7 22 10 -8 -294 -14 -140 -25 -258 -25 -262 0 -3 -35 -32 -77 -64
-43 -31 -93 -71 -110 -88 -25 -22 -33 -26 -33 -14 0 28 60 671 66 706 l5 34
82 -7 c45 -3 90 -9 100 -11z m335 -33 c23 -5 45 -11 48 -13 6 -7 -36 -341 -44
-349 -12 -11 -195 -79 -200 -75 -4 5 35 381 44 424 4 19 10 22 57 22 28 -1 71
-5 95 -9z m375 -40 c21 -5 41 -11 43 -14 6 -5 -25 -239 -31 -246 -7 -7 -196
-24 -201 -18 -6 6 25 266 33 280 6 10 109 9 156 -2z m390 -47 c15 -3 27 -11
27 -17 0 -21 -37 -227 -41 -231 -5 -5 -187 19 -194 25 -2 3 0 38 6 79 5 41 12
95 15 119 l6 43 76 -6 c42 -4 89 -9 105 -12z"/>
<path d="M7065 7362 c-37 -23 -58 -53 -78 -113 l-15 -44 -78 -3 -79 -2 -18 39
c-29 63 -57 71 -249 71 -193 -1 -303 -13 -338 -38 -43 -31 -62 -80 -55 -137
14 -99 15 -95 -46 -129 l-56 -30 -41 18 c-67 30 -110 24 -204 -32 -46 -27
-119 -69 -162 -93 -43 -24 -97 -60 -120 -80 -40 -36 -41 -38 -41 -103 l0 -67
49 -44 48 -45 -28 -47 c-15 -27 -32 -56 -38 -65 -8 -14 -24 -18 -63 -18 -79 0
-103 -27 -206 -228 -75 -147 -87 -176 -87 -220 0 -79 36 -113 148 -142 l42
-11 0 -73 c0 -68 -2 -74 -23 -80 -12 -3 -36 -19 -52 -36 l-30 -32 3 -156 c5
-253 24 -337 83 -367 36 -19 105 -19 158 0 l41 14 31 -60 c30 -60 30 -62 15
-100 -33 -81 -11 -148 90 -281 33 -42 67 -91 77 -107 16 -27 16 -31 2 -31 -8
0 -122 -14 -253 -30 -753 -96 -1520 -251 -2176 -440 -77 -22 -141 -38 -143
-36 -2 1 17 33 42 70 66 99 90 185 89 321 -1 95 -5 121 -29 185 -49 132 -124
226 -240 302 -168 110 -425 113 -612 7 -266 -152 -362 -493 -216 -770 61 -118
190 -230 314 -273 33 -12 62 -25 62 -30 1 -4 -79 -36 -178 -71 -450 -157 -816
-306 -1271 -518 -254 -118 -314 -164 -314 -241 0 -18 49 -118 135 -274 74
-134 135 -251 135 -260 0 -30 -42 -82 -98 -118 -31 -21 -140 -81 -242 -134
-549 -286 -726 -402 -745 -490 -16 -75 34 -97 290 -129 318 -40 801 -137 998
-201 116 -37 126 -49 109 -132 -6 -29 -40 -174 -76 -323 -111 -466 -168 -793
-146 -851 15 -38 26 -44 86 -44 43 0 63 8 145 56 637 379 1312 712 1844 909
99 37 201 78 226 91 54 27 99 76 99 107 0 12 -47 147 -105 301 l-105 278 44
62 c52 74 68 85 161 119 123 44 712 198 1020 266 1650 365 3356 382 5010 50
360 -73 1023 -240 1191 -300 89 -33 139 -70 149 -111 4 -17 -25 -112 -100
-322 -68 -190 -105 -305 -101 -319 10 -42 60 -73 201 -126 682 -259 1375 -594
1970 -952 168 -102 184 -109 233 -109 72 0 92 21 92 98 0 118 -77 505 -165
832 -25 91 -52 197 -60 235 -31 145 -26 150 205 210 199 51 618 136 790 160
233 32 316 47 359 66 l44 19 -6 46 c-6 53 -33 86 -117 144 -159 108 -515 308
-790 442 -252 124 -320 176 -320 249 0 12 59 132 131 266 148 275 150 284 87
351 -73 76 -759 375 -1343 585 -321 115 -744 248 -1043 327 -46 13 -81 24 -78
27 2 2 64 13 138 24 163 23 275 57 392 117 447 230 690 709 611 1202 -81 496
-455 861 -970 946 -144 23 -366 15 -495 -19 -409 -107 -730 -417 -845 -814
-75 -256 -51 -519 69 -768 89 -184 230 -349 405 -473 41 -28 71 -52 67 -52 -5
0 -113 20 -241 45 -711 136 -1379 225 -1973 261 l-113 7 103 67 c93 60 105 71
116 108 15 49 2 89 -48 152 -16 21 -30 42 -30 46 0 5 15 32 33 59 32 49 33 50
84 50 86 1 112 29 252 274 62 108 71 131 71 174 0 44 -4 54 -34 82 -20 19 -56
38 -88 47 -44 12 -53 18 -52 36 4 134 1 125 47 147 76 36 82 59 82 295 0 240
-5 258 -82 292 -37 16 -57 19 -97 13 -28 -4 -59 -8 -69 -8 -13 -1 -28 16 -50
55 l-32 56 23 40 c42 76 35 100 -89 294 -61 95 -118 180 -125 189 -8 9 -31 21
-52 27 -51 15 -98 1 -160 -47 l-49 -39 -64 34 c-63 33 -65 35 -61 69 10 89
-24 121 -245 232 -193 96 -244 109 -298 75z m41 -447 c250 -44 450 -144 629
-316 239 -230 367 -531 368 -869 1 -154 -9 -224 -50 -355 -55 -175 -141 -315
-282 -456 -184 -184 -413 -306 -671 -356 -126 -24 -346 -22 -477 6 -505 106
-877 473 -978 966 -21 103 -21 303 0 411 46 238 156 446 330 619 187 187 409
301 680 350 100 19 344 18 451 0z m4042 -884 c251 -73 467 -263 566 -499 102
-243 73 -528 -80 -764 -224 -349 -703 -482 -1090 -303 -451 208 -629 758 -381
1180 118 201 322 348 557 400 97 22 332 14 428 -14z m-8306 -1192 c84 -18 158
-58 219 -119 95 -94 139 -206 139 -349 0 -148 -43 -256 -139 -351 -99 -97
-210 -135 -377 -128 -86 3 -108 8 -167 35 -139 66 -232 189 -264 352 -47 239
84 475 302 544 28 9 61 18 75 20 52 9 161 7 212 -4z m5253 -470 c1369 -78
3015 -439 4250 -931 337 -134 780 -336 843 -385 37 -28 72 -79 72 -105 0 -27
-719 -1390 -747 -1415 -56 -52 -148 -25 -575 168 -956 432 -2262 766 -3478
889 -470 47 -640 54 -1245 54 -605 0 -774 -7 -1245 -54 -1342 -136 -2655 -491
-3869 -1047 -176 -80 -211 -93 -257 -93 -41 0 -59 5 -79 23 -34 29 -765 1373
-765 1406 0 50 85 114 273 206 700 342 1798 722 2714 939 670 159 1563 299
2065 323 l127 6 10 -24 c5 -15 39 -42 87 -71 95 -56 302 -158 320 -158 8 0 14
-4 14 -10 0 -5 -16 -10 -35 -10 -30 0 -35 -3 -35 -22 0 -49 51 -1076 56 -1125
l5 -53 105 0 104 0 -1 43 c0 23 -6 130 -13 237 -9 140 -10 197 -2 202 6 4 32
8 57 8 142 0 189 -54 264 -310 56 -186 40 -170 162 -170 88 0 103 2 103 16 0
48 -91 317 -141 415 -33 66 -103 149 -125 149 -26 0 -14 28 16 38 44 16 118
96 148 160 21 45 26 73 26 132 1 101 -23 167 -78 218 -75 69 -117 77 -376 75
-124 -1 -218 1 -210 4 77 29 99 54 120 141 10 38 14 43 33 38 12 -3 47 -6 78
-6 53 0 56 -2 70 -32 28 -64 55 -70 280 -69 156 2 210 5 240 18 69 27 95 87
74 172 l-8 34 199 -7 c109 -4 276 -11 369 -17z m-1074 -472 c83 -55 105 -196
43 -274 -47 -59 -103 -82 -201 -83 l-81 0 -6 38 c-9 66 -18 320 -11 331 4 7
48 11 114 11 95 0 112 -3 142 -23z m6325 -1738 c456 -230 569 -300 600 -376
15 -34 8 -69 -18 -91 -8 -6 -115 -32 -239 -58 -317 -65 -714 -158 -782 -184
-42 -16 -61 -29 -68 -47 -13 -35 9 -147 66 -343 83 -284 155 -587 155 -657 0
-48 -14 -70 -56 -83 -66 -22 -137 6 -386 156 -190 114 -606 322 -848 424 -323
136 -380 170 -399 236 -19 67 21 97 150 113 147 19 497 33 740 29 l237 -3 277
513 c153 281 281 512 284 512 4 0 133 -63 287 -141z m-12097 -2 c12 -13 135
-226 275 -473 181 -323 259 -452 277 -461 18 -8 72 -9 209 -1 316 17 838 -5
901 -38 56 -28 54 -89 -3 -147 -44 -43 -65 -54 -358 -178 -183 -77 -519 -246
-675 -339 -264 -158 -372 -210 -435 -210 -50 0 -80 38 -80 100 0 90 69 392
155 682 50 168 70 267 61 304 -4 16 -19 30 -42 40 -89 37 -591 158 -806 194
-226 38 -268 56 -268 114 0 86 80 144 468 343 168 86 187 93 241 93 47 0 61
-4 80 -23z"/>
<path d="M6982 6800 c-40 -24 -72 -75 -72 -114 0 -40 34 -91 74 -110 100 -47
206 15 206 120 0 98 -120 158 -208 104z"/>
<path d="M6305 6710 c-67 -27 -97 -132 -56 -198 25 -39 55 -52 122 -52 42 0
55 5 85 33 90 82 28 229 -96 226 -19 0 -44 -4 -55 -9z"/>
<path d="M7559 6447 c-101 -68 -49 -237 74 -237 107 0 173 89 134 183 -31 74
-137 102 -208 54z"/>
<path d="M6672 6410 c-191 -50 -360 -187 -446 -361 -59 -121 -79 -200 -79
-319 1 -266 151 -499 398 -616 113 -54 183 -69 325 -68 145 0 214 16 335 74
188 91 312 247 366 460 18 69 21 103 16 194 -8 188 -63 312 -199 448 -137 136
-322 208 -532 207 -75 0 -134 -6 -184 -19z m333 -175 c90 -24 153 -62 237
-146 103 -102 148 -191 155 -312 21 -323 -315 -610 -635 -543 -156 32 -304
150 -378 300 -39 79 -39 81 -39 195 0 114 1 118 38 195 29 62 55 96 115 155
147 145 331 201 507 156z"/>
<path d="M6765 5985 c-100 -37 -155 -116 -163 -233 -4 -66 -2 -78 27 -136 48
-99 126 -146 241 -146 108 0 187 44 234 131 70 127 28 296 -90 365 -39 23 -61
28 -128 31 -54 2 -95 -2 -121 -12z"/>
<path d="M5877 6209 c-58 -9 -89 -47 -94 -111 -7 -91 37 -139 125 -140 79 0
126 39 139 115 14 89 -67 154 -170 136z"/>
<path d="M7794 5840 c-11 -4 -34 -24 -52 -44 -106 -121 73 -285 197 -180 16
13 35 40 41 59 32 98 -88 205 -186 165z"/>
<path d="M5854 5550 c-30 -12 -71 -64 -79 -100 -8 -39 9 -91 40 -120 33 -31
118 -39 163 -16 85 44 80 189 -8 233 -28 14 -85 16 -116 3z"/>
<path d="M7493 5195 c-34 -34 -35 -38 -31 -95 5 -70 30 -104 90 -122 105 -31
192 63 159 173 -16 53 -58 79 -129 79 -48 0 -58 -4 -89 -35z"/>
<path d="M6272 5035 c-85 -38 -86 -186 -2 -230 38 -19 93 -19 135 1 72 34 86
147 27 207 -36 36 -107 46 -160 22z"/>
<path d="M6919 4905 c-29 -16 -59 -70 -59 -106 0 -12 9 -42 21 -66 71 -146
290 -53 239 101 -18 56 -61 86 -123 86 -29 -1 -64 -7 -78 -15z"/>
<path d="M11045 5958 c-46 -26 -58 -75 -30 -127 17 -34 33 -41 86 -41 53 0 89
35 89 85 0 71 -83 118 -145 83z"/>
<path d="M10565 5928 c-52 -30 -60 -89 -19 -137 21 -26 33 -31 69 -31 57 0 85
23 92 77 5 37 2 46 -25 73 -33 32 -79 40 -117 18z"/>
<path d="M11424 5672 c-65 -52 -47 -142 33 -166 49 -15 123 48 123 104 0 12
-13 35 -29 51 -35 34 -93 39 -127 11z"/>
<path d="M10205 5595 c-48 -47 -21 -150 40 -156 78 -6 115 20 115 81 0 87 -97
134 -155 75z"/>
<path d="M10802 5491 c-143 -49 -219 -222 -163 -370 28 -74 66 -117 134 -151
52 -26 71 -30 141 -30 64 0 92 5 131 24 168 78 208 312 78 456 -76 85 -202
112 -321 71z"/>
<path d="M11523 5216 c-23 -20 -28 -32 -28 -70 0 -53 17 -74 67 -85 73 -17
128 38 114 114 -4 19 -17 41 -29 50 -33 23 -91 19 -124 -9z"/>
<path d="M10159 5131 c-67 -67 -4 -174 91 -155 44 9 65 39 65 91 0 37 -5 49
-28 69 -40 34 -90 32 -128 -5z"/>
<path d="M11324 4818 c-48 -23 -59 -104 -19 -143 33 -34 102 -35 133 -2 25 26
30 91 9 118 -28 36 -80 48 -123 27z"/>
<path d="M10429 4751 c-75 -76 7 -194 104 -150 29 13 47 48 47 90 0 42 -48 89
-90 89 -22 0 -41 -9 -61 -29z"/>
<path d="M10879 4621 c-38 -39 -39 -87 -3 -130 41 -49 112 -41 142 16 33 61
-12 143 -78 143 -22 0 -41 -9 -61 -29z"/>
<path d="M2685 4623 c-85 -19 -159 -73 -195 -143 -75 -147 19 -322 195 -361
142 -32 295 94 295 242 0 65 -33 140 -81 186 -54 51 -159 88 -214 76z"/>
<path d="M7740 4096 c-112 -32 -194 -104 -225 -195 -26 -80 -18 -229 17 -296
35 -69 105 -131 223 -200 140 -82 161 -100 191 -161 46 -93 18 -148 -90 -175
-66 -16 -198 -6 -285 24 -82 27 -72 37 -96 -97 -9 -49 -13 -92 -8 -96 24 -23
175 -45 298 -44 163 0 223 20 301 98 73 73 97 141 98 271 1 94 -1 105 -32 167
-42 85 -117 154 -248 228 -54 30 -115 71 -136 91 -33 31 -38 42 -38 80 0 52
18 82 63 106 60 33 223 17 338 -31 13 -6 19 11 38 94 13 56 21 103 19 105 -2
2 -31 12 -63 21 -79 22 -303 28 -365 10z"/>
<path d="M5948 4045 c-153 -12 -281 -24 -284 -27 -7 -7 120 -1196 129 -1204 5
-5 540 32 606 42 l34 5 -5 100 c-3 55 -8 102 -11 105 -3 3 -101 -3 -219 -14
-117 -11 -215 -18 -217 -16 -5 4 -41 327 -38 330 1 1 78 6 170 12 93 5 170 12
173 15 3 2 0 46 -7 96 -11 83 -14 91 -33 91 -11 -1 -88 -9 -171 -19 -82 -10
-151 -18 -152 -17 -3 2 -42 291 -39 293 10 10 167 23 288 23 91 0 149 4 153
10 4 6 4 54 0 105 l-7 95 -47 -1 c-25 -1 -171 -12 -323 -24z"/>
<path d="M8961 3990 c-70 -15 -127 -48 -174 -100 -110 -122 -107 -345 7 -468
22 -25 92 -86 155 -135 62 -50 126 -108 142 -130 50 -69 34 -160 -33 -188 -74
-31 -258 -5 -371 52 -28 15 -38 17 -42 7 -2 -7 -16 -53 -30 -102 -28 -101 -31
-94 54 -127 219 -82 433 -68 549 36 73 65 105 143 110 267 8 174 -25 229 -224
379 -144 108 -184 156 -184 220 0 39 27 74 67 90 61 23 244 -6 321 -51 19 -12
36 -20 37 -18 1 2 15 41 30 88 15 47 30 90 32 96 5 13 -50 37 -147 65 -75 23
-235 32 -299 19z"/>
<path d="M5200 3955 c-80 -13 -145 -24 -145 -24 0 -132 -10 -250 -36 -426 -17
-121 -35 -283 -38 -360 l-6 -139 -175 418 c-96 230 -179 420 -185 422 -12 5
-303 -50 -311 -59 -6 -6 140 -1185 149 -1193 9 -9 187 30 187 40 0 6 -34 220
-75 475 -42 255 -74 465 -72 467 2 2 104 -199 227 -447 201 -406 225 -450 244
-445 12 3 45 11 73 17 48 11 53 15 58 43 3 17 25 227 50 466 25 239 49 448 53
464 5 21 30 -93 92 -433 46 -254 88 -467 91 -473 8 -13 195 4 210 19 6 6 -33
219 -106 579 -132 656 -123 614 -133 613 -4 -1 -72 -12 -152 -24z"/>
<path d="M9541 3823 c-7 -38 -14 -82 -17 -100 -7 -36 -29 -29 186 -53 58 -6
108 -14 112 -18 4 -4 -38 -229 -93 -501 -55 -272 -97 -496 -95 -499 13 -12
199 -43 205 -34 3 6 51 231 105 500 l99 489 151 -38 c82 -22 153 -36 157 -31
10 11 50 184 44 190 -5 5 -806 161 -831 162 -7 0 -17 -30 -23 -67z"/>
<path d="M10496 3678 c-3 -13 -37 -153 -75 -313 -92 -379 -104 -448 -104 -580
-1 -122 14 -179 65 -253 54 -79 186 -145 317 -158 45 -5 75 -2 127 15 173 53
283 215 404 594 34 105 82 253 106 327 24 74 41 137 36 142 -14 14 -196 68
-203 61 -5 -5 -38 -119 -74 -255 -152 -571 -229 -705 -397 -685 -67 8 -121 41
-149 91 -21 36 -24 53 -23 146 1 122 20 210 118 548 36 123 67 239 68 259 l3
36 -100 23 c-123 28 -114 28 -119 2z"/>
<path d="M3625 3630 c-104 -24 -310 -87 -347 -106 -20 -10 -28 -21 -25 -32 34
-127 332 -1119 337 -1125 7 -8 178 30 192 42 5 4 -21 108 -56 231 -71 251 -71
240 9 261 57 16 119 6 160 -25 43 -33 127 -150 196 -274 44 -80 54 -93 72 -88
12 3 57 13 102 22 44 9 84 20 88 24 13 11 -25 79 -127 230 -109 162 -164 224
-231 257 -27 14 -52 27 -53 28 -2 2 15 22 38 45 66 66 85 118 85 230 0 78 -4
104 -24 148 -30 66 -96 126 -156 141 -63 16 -167 12 -260 -9z m161 -186 c65
-31 114 -150 93 -226 -21 -79 -139 -162 -241 -171 l-32 -2 -53 174 c-35 114
-50 178 -44 184 20 20 147 56 194 57 27 0 64 -7 83 -16z"/>
<path d="M11587 3373 c-8 -14 -370 -1117 -371 -1132 -1 -15 174 -75 185 -63 4
4 39 108 78 230 l72 224 27 -6 c15 -4 89 -32 166 -62 76 -31 142 -52 146 -47
14 15 60 167 52 174 -4 3 -68 28 -142 54 -74 26 -145 51 -156 56 -21 8 -21 9
28 166 27 86 50 158 51 159 1 0 97 -36 212 -82 116 -46 213 -84 216 -84 11 0
90 183 82 191 -5 3 -145 55 -313 114 -168 59 -310 110 -316 112 -7 2 -14 1
-17 -4z"/>
<path d="M2633 3317 l-143 -51 0 -35 c1 -73 77 -1222 82 -1226 4 -4 195 71
206 80 2 2 -6 73 -17 158 -26 191 -26 184 1 198 51 27 292 109 307 104 9 -3
51 -68 95 -145 43 -77 81 -142 85 -145 8 -4 212 53 223 64 8 7 -672 1043 -687
1047 -5 1 -74 -21 -152 -49z m332 -613 c-10 -7 -71 -31 -136 -53 l-118 -39 -5
41 c-6 47 -36 445 -36 479 0 13 58 -61 156 -197 142 -198 154 -220 139 -231z"/>
<path d="M1800 2990 c-162 -71 -299 -130 -304 -132 -8 -3 491 -1108 500 -1108
5 0 177 80 181 84 2 2 -39 100 -92 219 -52 118 -95 219 -95 224 0 5 70 40 155
77 85 38 155 69 155 71 0 4 -71 159 -75 163 -1 1 -74 -28 -163 -66 l-160 -69
-70 158 -70 158 52 20 c123 46 371 142 372 144 4 3 -44 145 -56 167 -6 11 -16
20 -23 19 -7 0 -145 -59 -307 -129z"/>
<path d="M12367 3083 c-7 -10 -438 -1094 -440 -1106 -1 -5 40 -26 91 -47 l93
-39 22 52 c13 29 56 130 97 225 40 94 77 172 82 172 4 0 74 -32 155 -70 81
-39 150 -67 154 -63 15 16 68 168 61 174 -4 4 -73 35 -154 70 -82 34 -148 67
-148 73 0 6 13 45 28 86 16 41 41 107 56 146 l27 72 211 -99 c116 -54 213 -99
215 -99 9 0 93 184 86 191 -6 5 -472 206 -619 266 -7 2 -14 0 -17 -4z"/>
<path d="M11996 7308 c-3 -24 -7 -71 -10 -105 -5 -59 -4 -63 17 -68 43 -9 189
-26 193 -22 16 16 -129 202 -177 227 -15 9 -18 5 -23 -32z"/>
<path d="M2875 7189 c32 -103 124 -178 262 -214 65 -17 163 -20 163 -5 0 28
-47 104 -89 143 -62 58 -141 88 -255 95 l-88 5 7 -24z"/>
<path d="M2462 7192 c-34 -23 77 -148 168 -191 46 -22 72 -27 163 -29 59 -2
107 0 107 5 0 20 -60 101 -100 136 -61 52 -138 79 -240 84 -47 2 -91 0 -98 -5z"/>
<path d="M3290 7191 c0 -27 44 -101 83 -138 73 -72 176 -112 285 -113 51 0 53
1 46 23 -27 87 -110 173 -202 208 -65 25 -212 39 -212 20z"/>
<path d="M2058 7159 c-16 -6 -28 -14 -28 -18 0 -4 23 -33 52 -65 38 -43 71
-68 122 -92 67 -32 76 -34 179 -34 108 0 108 0 101 23 -18 58 -89 127 -168
163 -46 21 -78 27 -145 30 -47 2 -98 -1 -113 -7z"/>
<path d="M3710 7157 c0 -7 11 -36 25 -64 29 -58 93 -122 154 -152 50 -26 144
-51 189 -51 33 0 34 1 28 31 -22 111 -117 197 -259 235 -67 18 -137 18 -137 1z"/>
<path d="M1683 7111 c-28 -4 -55 -9 -58 -13 -10 -10 28 -61 81 -107 73 -64
213 -100 322 -82 29 4 55 11 58 14 12 12 -60 100 -105 128 -77 50 -193 73
-298 60z"/>
<path d="M4130 7112 c0 -6 9 -36 21 -67 39 -105 152 -187 297 -215 34 -7 66
-10 69 -6 11 11 -26 111 -57 154 -37 51 -87 85 -165 112 -73 25 -165 37 -165
22z"/>
<path d="M4550 7032 c0 -78 82 -189 177 -239 55 -29 151 -63 180 -63 19 0 16
41 -7 102 -35 94 -132 170 -257 203 -75 20 -93 19 -93 -3z"/>
<path d="M4973 6911 c8 -64 35 -116 89 -168 46 -45 148 -97 211 -109 l37 -6 0
46 c0 116 -91 213 -249 265 -93 31 -95 30 -88 -28z"/>
<path d="M2723 6922 c-100 -35 -163 -111 -163 -196 l0 -39 83 5 c57 3 94 11
123 26 75 38 141 135 132 194 -3 21 -9 23 -63 25 -38 2 -79 -4 -112 -15z"/>
<path d="M3074 6906 c-58 -27 -106 -80 -123 -135 -21 -70 -20 -71 69 -71 135
0 214 43 261 144 16 33 29 67 29 74 0 9 -25 12 -92 12 -77 0 -102 -4 -144 -24z"/>
<path d="M2341 6901 c-102 -35 -158 -100 -168 -194 l-6 -57 41 0 c22 0 70 9
107 21 109 33 184 119 185 212 l0 37 -52 0 c-29 -1 -77 -9 -107 -19z"/>
<path d="M3539 6910 c-90 -15 -163 -69 -193 -142 -31 -74 -28 -78 77 -78 75 0
101 4 142 24 56 25 107 78 130 133 21 49 20 51 -22 58 -74 12 -89 13 -134 5z"/>
<path d="M11956 6848 c-3 -24 -18 -225 -32 -448 l-27 -406 68 -109 c37 -60 77
-132 90 -159 14 -32 24 -45 28 -36 15 45 170 706 192 824 22 114 26 153 20
220 -3 45 -10 87 -13 94 -6 8 -278 62 -315 62 -3 0 -8 -19 -11 -42z"/>
<path d="M1952 6861 c-97 -34 -167 -128 -160 -217 3 -36 5 -39 36 -42 46 -5
151 32 195 69 46 38 76 95 84 160 l6 49 -54 0 c-30 -1 -78 -9 -107 -19z"/>
<path d="M3890 6861 c-44 -14 -84 -38 -117 -73 -40 -41 -69 -106 -54 -121 6
-6 50 -10 98 -10 137 0 223 44 269 139 23 46 25 57 13 65 -17 10 -174 10 -209
0z"/>
<path d="M4270 6801 c-74 -24 -133 -76 -159 -140 -20 -46 -6 -54 96 -55 108
-1 170 16 223 61 48 41 87 110 71 126 -13 13 -197 19 -231 8z"/>
<path d="M4614 6706 c-74 -34 -144 -130 -116 -158 5 -5 47 -11 93 -15 135 -9
226 26 292 114 15 20 27 40 27 44 0 16 -98 39 -169 39 -59 0 -88 -6 -127 -24z"/>
<path d="M5018 6620 c-51 -15 -98 -52 -124 -96 -14 -24 -23 -48 -20 -53 11
-17 119 -33 191 -29 54 4 84 12 124 33 50 28 115 99 108 119 -9 28 -210 47
-279 26z"/>
<path d="M4002 6442 c-32 -22 56 -145 132 -184 61 -31 133 -48 209 -48 75 0
77 2 48 67 -27 59 -93 118 -159 144 -61 23 -208 36 -230 21z"/>
<path d="M4425 6413 c29 -121 157 -208 323 -220 70 -6 72 -5 72 17 0 70 -100
185 -187 214 -28 10 -80 16 -131 16 l-84 0 7 -27z"/>
<path d="M3588 6423 c-32 -8 -19 -41 42 -106 80 -86 134 -107 272 -107 98 0
99 0 93 23 -21 72 -113 157 -197 182 -48 14 -170 19 -210 8z"/>
<path d="M3198 6391 c-26 -4 -50 -10 -54 -13 -10 -11 34 -74 80 -115 61 -53
123 -74 236 -80 119 -5 128 0 103 58 -48 108 -205 173 -365 150z"/>
<path d="M2760 6333 c-42 -8 -45 -20 -15 -63 60 -87 165 -132 305 -132 87 0
130 7 130 21 0 18 -63 93 -102 121 -23 17 -64 37 -91 45 -47 14 -169 18 -227
8z"/>
<path d="M2335 6251 c-34 -8 -34 -19 -2 -62 30 -42 101 -87 166 -106 61 -17
244 -14 262 4 15 15 -33 85 -79 117 -62 43 -116 56 -221 55 -53 -1 -109 -4
-126 -8z"/>
<path d="M3805 6159 c-104 -36 -167 -101 -181 -188 l-7 -44 75 5 c84 5 162 36
220 87 35 30 88 120 88 148 0 21 -125 16 -195 -8z"/>
<path d="M4172 6158 c-64 -25 -133 -97 -151 -158 -7 -23 -9 -45 -6 -48 14 -15
144 -2 200 19 84 31 167 113 190 187 6 22 5 22 -87 21 -70 0 -106 -6 -146 -21z"/>
<path d="M1965 6156 c-23 -7 -50 -18 -60 -24 -19 -10 -17 -13 22 -50 65 -62
143 -95 238 -100 83 -4 190 11 201 30 12 19 -97 117 -154 138 -61 23 -183 26
-247 6z"/>
<path d="M4606 6155 c-98 -27 -184 -103 -202 -177 -5 -24 -3 -28 17 -29 50 -1
-2 -8 -175 -24 -171 -15 -192 -19 -510 -106 -707 -193 -1349 -385 -2126 -636
-146 -47 -268 -87 -272 -90 -4 -2 3 -21 16 -41 36 -55 49 -108 43 -168 l-5
-53 61 -5 c34 -3 230 -13 436 -21 l374 -16 56 46 c31 25 94 65 141 89 l85 44
-35 6 c-19 3 -208 19 -419 36 -211 16 -385 31 -387 33 -2 2 489 128 1092 281
602 154 1096 277 1099 274 4 -3 -331 -710 -338 -714 -1 0 -117 10 -257 23
-140 12 -264 22 -275 20 -14 -1 -1 -14 48 -46 37 -24 94 -73 125 -107 l57 -64
183 -16 c101 -9 185 -14 187 -12 2 2 119 214 260 473 141 258 260 474 265 479
5 5 128 19 272 32 145 12 265 23 267 23 4 1 -7 180 -15 234 -4 23 -11 37 -20
37 -27 0 -14 16 31 38 l45 22 0 -22 c0 -35 20 -299 26 -347 l6 -43 156 6 c249
10 265 13 317 53 58 44 58 70 1 90 -92 31 -150 108 -149 199 0 27 6 60 12 73
7 12 10 25 8 28 -3 2 -83 -2 -179 -10 -95 -7 -175 -13 -177 -11 -2 2 13 29 32
61 25 41 32 60 24 65 -19 12 -147 7 -201 -7z"/>
<path d="M3450 6146 c-130 -37 -220 -129 -220 -227 l0 -32 53 6 c159 17 280
109 302 230 l7 37 -48 -1 c-27 0 -69 -6 -94 -13z"/>
<path d="M3068 6105 c-144 -39 -228 -128 -228 -240 l0 -28 59 6 c155 14 281
127 281 251 0 23 -4 26 -32 25 -18 0 -54 -7 -80 -14z"/>
<path d="M1595 6046 c-27 -8 -63 -19 -79 -26 l-29 -11 39 -40 c86 -88 217
-118 367 -85 42 10 79 21 82 25 9 16 -67 91 -120 116 -67 33 -184 42 -260 21z"/>
<path d="M2680 6044 c-138 -37 -220 -126 -220 -240 l0 -47 47 7 c146 20 272
137 273 254 0 49 -7 51 -100 26z"/>
<path d="M2268 5954 c-126 -48 -187 -126 -188 -238 l0 -58 28 6 c89 21 149 52
203 106 47 47 59 65 69 111 23 103 2 116 -112 73z"/>
<path d="M1176 5900 c-32 -10 -63 -23 -69 -29 -17 -17 28 -57 102 -94 60 -29
74 -32 161 -32 89 0 187 21 214 45 15 14 -73 88 -130 110 -71 26 -195 27 -278
0z"/>
<path d="M1930 5866 c-25 -7 -57 -18 -72 -24 -39 -16 -107 -80 -128 -122 -22
-42 -35 -120 -25 -150 6 -18 12 -20 38 -15 62 12 155 65 195 110 51 59 76 146
56 199 -7 19 -5 19 -64 2z"/>
<path d="M820 5752 c-30 -10 -68 -27 -83 -37 -26 -17 -27 -19 -11 -37 10 -10
47 -33 83 -51 60 -29 74 -32 161 -32 97 0 185 19 225 49 20 14 20 15 -9 45
-47 49 -118 74 -221 78 -67 2 -104 -2 -145 -15z"/>
<path d="M1533 5741 c-114 -42 -186 -124 -194 -221 -4 -53 2 -91 14 -96 28
-10 127 38 181 87 65 60 88 112 84 189 -4 65 -10 68 -85 41z"/>
<path d="M1165 5604 c-61 -22 -136 -84 -163 -134 -20 -38 -23 -56 -20 -112 2
-37 8 -72 13 -77 6 -6 27 -4 54 6 130 44 207 152 199 278 -3 58 -16 64 -83 39z"/>
<path d="M475 5587 c-50 -17 -122 -54 -130 -67 -9 -14 72 -68 128 -85 75 -22
164 -19 254 10 43 13 87 31 98 40 20 15 20 15 -5 34 -71 57 -122 75 -215 78
-55 2 -105 -2 -130 -10z"/>
<path d="M804 5446 c-132 -61 -198 -169 -169 -278 19 -73 25 -75 92 -38 103
58 148 116 159 202 6 50 -7 130 -21 135 -6 1 -33 -8 -61 -21z"/>
<path d="M1043 5096 c-103 -48 -141 -167 -90 -279 33 -73 86 -109 167 -115
139 -10 229 73 230 211 0 88 -51 169 -123 196 -49 19 -128 13 -184 -13z"/>
<path d="M857 4765 c-78 -101 -117 -221 -117 -355 0 -104 19 -188 65 -287 93
-202 291 -387 492 -460 36 -13 68 -21 71 -19 3 3 -17 31 -44 61 -92 106 -124
150 -164 230 -59 121 -83 220 -83 345 0 120 18 198 68 308 l34 72 -43 0 c-88
0 -178 51 -227 129 l-15 24 -37 -48z"/>
<path d="M7200 2391 c-84 -27 -112 -45 -172 -110 -50 -54 -88 -126 -88 -168 0
-23 183 -17 261 8 85 28 117 49 182 119 47 50 87 125 87 162 0 16 -212 8 -270
-11z"/>
<path d="M6658 2376 c-74 -26 -106 -46 -160 -103 -36 -37 -80 -119 -93 -175
l-7 -28 68 0 c85 0 177 21 247 56 96 48 182 151 202 242 l7 32 -99 -1 c-75 0
-113 -5 -165 -23z"/>
<path d="M7825 2390 c-158 -18 -272 -90 -327 -205 -15 -33 -28 -66 -28 -72 0
-20 46 -26 144 -20 192 12 325 92 387 232 25 56 18 65 -48 65 -23 0 -47 2 -55
4 -7 2 -40 0 -73 -4z"/>
<path d="M6171 2350 c-130 -35 -213 -96 -262 -195 -17 -34 -33 -81 -36 -104
l-6 -41 49 0 c215 1 417 146 449 323 l7 37 -63 -1 c-35 0 -97 -9 -138 -19z"/>
<path d="M8255 2326 c-109 -35 -191 -104 -232 -193 -21 -45 -23 -57 -12 -64 8
-5 61 -9 118 -9 109 0 196 17 264 52 87 44 205 184 178 211 -18 18 -265 20
-316 3z"/>
<path d="M5673 2295 c-79 -17 -176 -64 -230 -110 -51 -44 -101 -140 -110 -213
l-6 -52 30 0 c46 0 182 37 240 66 112 54 202 170 219 282 l7 42 -44 -1 c-24 0
-72 -7 -106 -14z"/>
<path d="M8822 2259 c-78 -15 -159 -59 -210 -113 -55 -58 -88 -114 -75 -127 4
-4 47 -13 94 -19 178 -22 333 24 430 127 56 59 84 103 72 113 -26 24 -223 37
-311 19z"/>
<path d="M5130 2199 c-100 -26 -168 -60 -230 -116 -68 -61 -102 -129 -108
-217 l-5 -68 44 7 c72 11 191 54 241 87 80 51 145 130 168 205 11 36 20 78 20
94 0 25 -4 29 -27 28 -16 0 -62 -9 -103 -20z"/>
<path d="M9382 2159 c-71 -9 -156 -45 -212 -89 -45 -36 -107 -127 -94 -139 15
-14 135 -31 215 -31 147 0 267 48 353 141 31 33 56 64 56 69 0 13 -88 39 -170
50 -41 5 -77 9 -80 8 -3 0 -33 -4 -68 -9z"/>
<path d="M4580 2077 c-216 -65 -340 -193 -340 -350 0 -80 5 -83 91 -57 158 47
280 135 330 237 16 33 25 71 27 121 5 85 8 83 -108 49z"/>
<path d="M6963 2053 c-13 -2 -23 -9 -23 -14 0 -31 61 -131 109 -180 79 -78
164 -109 302 -109 113 0 111 -2 80 80 -53 140 -207 232 -381 229 -36 -1 -75
-4 -87 -6z"/>
<path d="M7477 2053 c-24 -24 23 -132 87 -201 74 -79 210 -131 344 -132 62 0
63 4 30 100 -25 76 -95 153 -171 188 -82 38 -268 67 -290 45z"/>
<path d="M6432 2023 c-28 -6 -24 -26 19 -93 83 -132 199 -190 380 -190 62 0
110 4 114 10 11 18 -42 118 -89 168 -29 31 -70 60 -109 78 -55 25 -74 29 -177
30 -63 1 -125 0 -138 -3z"/>
<path d="M7994 1993 c18 -101 90 -199 188 -257 53 -31 183 -66 246 -66 l45 0
-7 46 c-24 178 -207 313 -425 314 l-53 0 6 -37z"/>
<path d="M9854 2012 c-34 -10 -85 -34 -114 -52 -58 -38 -136 -128 -122 -142
15 -15 193 -48 257 -48 75 0 171 22 235 55 65 33 165 126 158 147 -18 45 -304
72 -414 40z"/>
<path d="M5915 1973 c-11 -3 -24 -9 -29 -13 -13 -13 36 -90 92 -142 90 -84
188 -118 342 -118 117 0 127 5 109 54 -33 91 -132 181 -232 211 -48 14 -233
20 -282 8z"/>
<path d="M8520 1952 c0 -74 68 -202 135 -255 67 -53 215 -107 293 -107 l34 0
-4 53 c-9 109 -88 222 -193 272 -65 32 -157 55 -217 55 -40 0 -48 -3 -48 -18z"/>
<path d="M3994 1911 c-137 -47 -263 -144 -294 -225 -13 -34 -13 -203 -1 -211
13 -8 119 29 194 67 76 38 162 119 194 181 28 57 47 147 38 188 -8 37 -26 37
-131 0z"/>
<path d="M5430 1898 c-36 -5 -69 -13 -74 -18 -13 -13 54 -109 104 -149 22 -18
66 -44 98 -59 54 -25 65 -27 204 -27 98 0 151 4 159 12 8 8 4 24 -17 63 -52
95 -150 159 -274 179 -75 12 -109 12 -200 -1z"/>
<path d="M9060 1842 c0 -159 130 -294 335 -347 100 -25 99 -26 95 65 -7 161
-165 297 -378 326 l-52 7 0 -51z"/>
<path d="M4885 1784 c-33 -8 -63 -18 -68 -23 -12 -12 65 -104 118 -139 76 -50
150 -74 250 -79 88 -5 230 11 240 26 7 13 -49 93 -90 130 -22 19 -68 48 -104
64 -58 28 -77 31 -176 34 -73 2 -130 -2 -170 -13z"/>
<path d="M9590 1721 c0 -118 59 -219 174 -293 61 -39 209 -93 233 -84 9 4 13
27 13 79 0 129 -65 225 -195 289 -56 28 -132 54 -187 64 l-38 6 0 -61z"/>
<path d="M10180 1729 c-72 -12 -150 -38 -150 -50 0 -22 134 -148 187 -177 119
-63 269 -84 418 -60 70 11 80 16 83 35 4 27 -112 153 -175 190 -95 56 -249 82
-363 62z"/>
<path d="M4399 1650 c-111 -23 -133 -34 -119 -60 15 -27 103 -96 162 -126 105
-53 234 -68 354 -39 68 16 114 34 114 46 0 18 -103 117 -147 142 -107 58 -214
69 -364 37z"/>
<path d="M3960 1500 c-70 -9 -125 -25 -186 -52 l-48 -21 52 -48 c113 -104 280
-148 448 -118 69 12 155 38 169 50 12 12 -76 102 -130 134 -78 46 -205 68
-305 55z"/>
</g>
</svg>
